<?xml version="1.0" encoding="utf-8"?>
<!-- Generator: Adobe Illustrator 19.2.0, SVG Export Plug-In . SVG Version: 6.00 Build 0)  -->
<svg version="1.1" id="Layer_1" xmlns="http://www.w3.org/2000/svg" xmlns:xlink="http://www.w3.org/1999/xlink" x="0px" y="0px"
	 viewBox="0 0 612 149.4" style="enable-background:new 0 0 612 149.4;" xml:space="preserve">
<path d="M1.2,106.5h16.5V4.8H1.2V2.8h33.5l27.5,80l0.3,0L90,2.8h32.9v2.1h-16.5v101.7h16.5v2.1H75v-2.1h16.5V5.7h-0.3l-35.6,103
	L20.3,6.8H20v99.8h16.5v2.1H1.2V106.5z"/>
<path d="M118.8,55.5c0-7.9,1.6-15.3,4.7-22c3.1-6.7,7.1-12.6,12-17.6c4.9-5,10.4-8.9,16.6-11.7c6.1-2.8,12.3-4.2,18.4-4.2
	c6.5,0,12.9,1.4,19.1,4.2c6.2,2.8,11.7,6.7,16.6,11.7c4.9,5,8.7,10.8,11.7,17.6c2.9,6.7,4.4,14.1,4.4,22c0,6.9-1.3,13.7-4,20.4
	c-2.7,6.6-6.3,12.6-11,17.7c-4.7,5.2-10.1,9.3-16.4,12.5c-6.3,3.2-13.1,4.8-20.3,4.8c-7.4,0-14.3-1.5-20.7-4.6
	c-6.3-3.1-11.8-7.2-16.4-12.3c-4.6-5.1-8.2-11-10.8-17.7C120.1,69.6,118.8,62.7,118.8,55.5z M136,55.5c0,8.9,0.6,16.7,1.8,23.3
	c1.2,6.6,3.2,12.2,5.9,16.7c2.8,4.5,6.3,7.8,10.7,10c4.4,2.2,9.8,3.3,16.2,3.3c6.3,0,11.7-1.1,16.1-3.3c4.4-2.2,8-5.5,10.8-10
	c2.8-4.5,4.8-10,5.9-16.7c1.2-6.6,1.8-14.4,1.8-23.3c0-6.8-0.4-13.5-1.3-19.9c-0.9-6.4-2.6-12.1-5.1-17.1c-2.5-5-6-9-10.6-12
	c-4.5-3-10.4-4.5-17.6-4.5c-7.2,0-13.1,1.5-17.6,4.5c-4.5,3-8,7-10.6,12c-2.5,5-4.2,10.7-5.1,17.1C136.4,42.1,136,48.7,136,55.5z"/>
<path d="M219,106.5h16.5V4.8H219V2.8h27.7c1.4,0,2.8,0,4.2-0.1c1.4-0.1,2.8-0.2,4.2-0.3c1.4,0,2.8,0,4.2-0.1c1.4,0,2.8-0.1,4.2-0.1
	c3,0,5.6,0.1,8,0.1c2.3,0.1,4.5,0.3,6.5,0.5c2,0.2,4,0.6,5.8,1c1.8,0.4,3.8,1,5.9,1.7c6,2,11.3,4.6,15.7,8c4.4,3.3,8,7.2,10.9,11.5
	c2.8,4.4,4.9,9.1,6.2,14.3c1.3,5.2,2,10.6,2,16.2c0,6.5-0.8,12.4-2.4,17.6c-1.6,5.2-3.8,9.8-6.5,13.8c-2.8,4-6,7.5-9.7,10.4
	c-3.7,2.9-7.7,5.3-12,7.1c-2.4,1.1-4.6,1.9-6.8,2.5c-2.1,0.6-4.3,1-6.5,1.3c-2.2,0.3-4.7,0.5-7.4,0.6c-2.7,0.1-5.7,0.1-9.2,0.1
	c-1.5,0-3.1,0-4.8-0.1c-1.7-0.1-3.4-0.1-5.1-0.2c-1.7-0.1-3.3-0.2-5-0.2c-1.6-0.1-3.2-0.1-4.7-0.1H219V106.5z M250.4,106.5
	c1.7,0.2,3.6,0.3,5.9,0.4c2.2,0.1,4.7,0.1,7.4,0.1c3.4,0,6.7-0.2,10-0.5c3.3-0.3,6.5-1.1,9.5-2.2c3-1.1,5.8-2.8,8.5-4.9
	c2.6-2.1,5-4.9,7.1-8.4c3.2-5.4,5.4-10.8,6.6-16.4c1.2-5.6,1.9-11.7,1.9-18.4c0-7.8-0.7-14.9-2.2-21.3c-1.5-6.4-3.9-11.9-7.4-16.4
	c-3.4-4.5-7.9-8-13.6-10.5c-5.6-2.5-12.6-3.7-20.9-3.7c-2.5,0-4.7,0-6.8,0.1c-2,0.1-4,0.2-5.9,0.3V106.5z"/>
<path d="M324.8,106.5h16.5V4.8h-16.5V2.8h85.1v25.7h-1.6c-1.3-3.9-2.7-7.3-4.2-10.2c-1.5-2.9-3.3-5.4-5.4-7.4
	c-2.1-2-4.6-3.5-7.4-4.5c-2.9-1-6.3-1.5-10.4-1.5h-24.7v45.9h9.7c3.3,0,6-0.3,8.3-0.9c2.3-0.6,4.2-1.7,5.9-3.3
	c1.6-1.6,3-3.9,4.2-6.7c1.1-2.8,2.3-6.5,3.3-10.9h1.6v46.2h-1.6c-0.7-2.9-1.4-5.6-2.2-8.3c-0.7-2.7-1.8-5-3.1-7.1
	c-1.3-2.1-3.1-3.7-5.4-5c-2.2-1.2-5.1-1.9-8.7-1.9h-12v53.6h28.1c5.5,0,10-1.2,13.6-3.5c3.6-2.3,6.6-5.1,8.9-8.3
	c2.3-3.2,4-6.6,5.1-10c1.1-3.5,1.8-6.3,2.1-8.6h1.6v32.6h-90.7V106.5z"/>
<path d="M517.4,108.6c-3.5,0-6.9,0.5-9.8,0.5c-4,0-7.3-0.5-9.9-1.5c-2.6-1-4.7-2.5-6.3-4.4c-1.6-1.9-2.4-3.8-3.1-6.6
	c-0.7-2.8-1.3-6.1-1.6-9.9l-1-13.5c-0.4-5-1.4-8.8-3-11.6c-1.6-2.8-3.4-4.8-5.6-6.1c-2.1-1.3-4.3-2.1-6.6-2.3
	c-2.3-0.2-4.3-0.4-5.9-0.4h-14.9v53.6h16.5v2.1h-47.9v-2.1h16.5V4.8h-16.5V2.8h28.3c1.2,0,2.4,0,3.6-0.1c1.2-0.1,2.4-0.2,3.6-0.3
	c1.2,0,2.4,0,3.6-0.1c1.2,0,2.4-0.1,3.6-0.1c5.9,0,11,0.3,15.5,1c4.5,0.6,8.6,2.5,12.5,5.6c3.5,2.7,5.9,5.7,7.4,9.1
	c1.4,3.4,2.2,6.5,2.2,9.5c0,1.5-0.3,3.4-0.8,5.7c-0.5,2.3-1.7,4.7-3.6,7.1c-1.8,2.4-4.5,4.7-8,6.7c-3.5,2-8.1,3.4-13.8,4.1v0.3
	c1.6,0.2,3.7,0.6,6.5,1.1c2.7,0.5,5.5,1.5,8.3,2.8c2.8,1.3,5.4,3,7.8,5.1c2.4,2.1,4.1,4.9,5.1,8.3c0.6,2,1,4.2,1.3,6.8
	c0.2,2.5,0.4,5.1,0.6,7.8c0.1,2.7,0.3,5.3,0.4,7.7c0.1,2.5,0.4,4.6,0.8,6.2c0.6,2.6,1.2,4.4,2.5,6.5c1.3,2.1,4.2,2.9,7,2.9
	c1.3,0,2.6,0,4.1,0h1.8v2.1L517.4,108.6z M449.7,50.8h13.7c2.8,0,5.3-0.3,7.6-1c2.3-0.7,4.2-1.9,5.9-3.6c1.6-1.7,2.9-4.1,3.8-7.1
	c0.9-3,1.3-6.7,1.3-11.3c0-5.2-0.7-9.3-2-12.4c-1.3-3.1-3.1-5.5-5.2-7.1c-2.1-1.6-4.5-2.6-7.1-3.1c-2.6-0.5-5.2-0.7-7.8-0.7
	c-1.8,0-3.6,0-5.4,0.1c-1.8,0-3.4,0.2-4.7,0.4V50.8z"/>
<path d="M517.5,106.5h6.1V4.8h-16.5V2.8h31.8l50.3,81l0.3,0.1v-79H573V2.8h35.3v2.1h-16.5v105.9h-3l-62.6-99.8h-0.3v95.6h16.5v2.1
	h-24.2L517.5,106.5z"/>
<path d="M418.8,138.1h0.5c0.4,1.8,0.8,3.3,1.4,4.5c0.6,1.2,1.2,2.2,1.9,3c0.7,0.8,1.4,1.4,2.2,1.8c0.8,0.4,1.5,0.7,2.3,0.9
	c0.8,0.2,1.5,0.3,2.2,0.3c0.7,0,1.4,0,2,0c1.7,0,3.2-0.3,4.3-0.8c1.1-0.5,2-1.2,2.7-2c0.7-0.8,1.1-1.7,1.4-2.6s0.4-1.8,0.4-2.6
	c0-1.1-0.2-2.1-0.6-3c-0.4-0.8-1-1.5-1.6-2.1c-0.7-0.6-1.4-1-2.1-1.4c-0.8-0.4-1.5-0.6-2.2-0.8l-5.7-1.7c-2.7-0.8-4.7-1.9-6-3.2
	c-1.4-1.3-2-3.1-2-5.4c0-1.5,0.3-2.8,0.8-4.1c0.5-1.3,1.3-2.4,2.2-3.3c1-0.9,2.1-1.6,3.4-2.2c1.3-0.5,2.8-0.8,4.4-0.8
	c1.1,0,2.1,0.1,2.9,0.3c0.8,0.2,1.4,0.4,2,0.7c0.6,0.2,1.1,0.5,1.5,0.7c0.4,0.2,0.9,0.3,1.4,0.3c0.4,0,0.7-0.1,0.9-0.2
	c0.1-0.1,0.4-0.4,0.6-0.9h0.7v8.9h-0.6c-0.2-1.2-0.5-2.3-1-3.4c-0.5-1.1-1.1-2.1-1.8-2.9c-0.8-0.8-1.7-1.5-2.7-2
	c-1.1-0.5-2.3-0.8-3.7-0.8c-0.8,0-1.7,0.1-2.6,0.3c-1,0.2-1.8,0.6-2.7,1.1c-0.8,0.5-1.5,1.2-2,2.1c-0.5,0.9-0.8,1.9-0.8,3.2
	c0,1.1,0.2,1.9,0.6,2.7c0.4,0.7,1,1.4,1.6,1.9c0.7,0.5,1.4,0.9,2.3,1.3c0.8,0.3,1.7,0.6,2.5,0.9l6,1.9c0.6,0.2,1.4,0.5,2.4,0.8
	c1,0.3,1.9,0.8,2.8,1.5c0.9,0.7,1.7,1.5,2.3,2.6c0.6,1.1,1,2.5,1,4.1c0,1.5-0.3,3-0.9,4.4c-0.6,1.4-1.4,2.6-2.5,3.7
	c-1.1,1.1-2.4,1.9-3.9,2.6c-1.5,0.6-3.3,1-5.2,1c-0.7,0-1.3,0-1.8,0c-0.5,0-1-0.1-1.5-0.1c-0.5-0.1-0.9-0.1-1.4-0.2
	c-0.5-0.1-1-0.2-1.5-0.4c-0.7-0.2-1.4-0.4-2.1-0.7c-0.8-0.3-1.4-0.4-2-0.4c-0.5,0-0.8,0.1-1,0.3c-0.2,0.2-0.3,0.5-0.5,0.8h-0.7
	V138.1z"/>
<path d="M441.7,148h4.3l13.3-35.2h1.2l13.4,35.2h1.6v0.7h-12.3V148h5.5l-5.2-13.7H452l-5.2,13.7h5.5v0.7h-10.6V148z M457.7,119.3
	l-5.4,14.3l10.8,0L457.7,119.3z"/>
<path d="M476,148h5.5v-33.6H476v-0.7h15.8v0.7h-5.5V148h8.7c2.9,0,5.1-0.9,6.8-2.7c1.6-1.8,2.8-4.3,3.6-7.4h0.5v10.8h-30V148z"/>
<path d="M507.8,131.1c0-2.6,0.5-5,1.5-7.3c1-2.2,2.4-4.2,4-5.8c1.6-1.6,3.4-2.9,5.5-3.9c2-0.9,4.1-1.4,6.1-1.4
	c2.2,0,4.3,0.5,6.3,1.4c2,0.9,3.9,2.2,5.5,3.9c1.6,1.6,2.9,3.6,3.9,5.8c1,2.2,1.4,4.7,1.4,7.3c0,2.3-0.4,4.5-1.3,6.7
	c-0.9,2.2-2.1,4.1-3.6,5.9c-1.5,1.7-3.3,3.1-5.4,4.1c-2.1,1-4.3,1.6-6.7,1.6c-2.5,0-4.7-0.5-6.8-1.5c-2.1-1-3.9-2.4-5.4-4.1
	c-1.5-1.7-2.7-3.6-3.6-5.8C508.3,135.8,507.8,133.5,507.8,131.1z M513.5,131.1c0,3,0.2,5.5,0.6,7.7c0.4,2.2,1,4,2,5.5
	c0.9,1.5,2.1,2.6,3.5,3.3c1.4,0.7,3.2,1.1,5.4,1.1c2.1,0,3.9-0.4,5.3-1.1c1.5-0.7,2.6-1.8,3.6-3.3c0.9-1.5,1.6-3.3,2-5.5
	c0.4-2.2,0.6-4.8,0.6-7.7c0-2.3-0.1-4.4-0.4-6.6c-0.3-2.1-0.9-4-1.7-5.7c-0.8-1.7-2-3-3.5-4c-1.5-1-3.4-1.5-5.8-1.5
	c-2.4,0-4.3,0.5-5.8,1.5c-1.5,1-2.7,2.3-3.5,4c-0.8,1.7-1.4,3.5-1.7,5.7C513.6,126.7,513.5,128.9,513.5,131.1z"/>
<path d="M541.5,148h5.5v-33.6h-5.5v-0.7H552l16.6,26.8l0.1,0v-26.1h-5.5v-0.7h11.6v0.7h-5.5v35h-1l-20.7-33h-0.1V148h5.5v0.7h-11.6
	V148z"/>
</svg>
